<?xml version="1.0" encoding="UTF-8" standalone="no"?>
<!DOCTYPE svg PUBLIC "-//W3C//DTD SVG 1.1//EN" "http://www.w3.org/Graphics/SVG/1.1/DTD/svg11.dtd">
<svg xmlns="http://www.w3.org/2000/svg" version="1.1" viewBox="0.00 0.00 540.00 540.00">
<g stroke-width="2.00" fill="none" stroke-linecap="butt">
<path stroke="#0e0e13" vector-effect="non-scaling-stroke" d="
  M 422.33 82.19
  Q 411.37 95.21 406.27 107.80
  C 401.46 119.69 397.38 131.29 390.71 142.88"
/>
<path stroke="#264f7f" vector-effect="non-scaling-stroke" d="
  M 390.71 142.88
  L 354.71 122.13
  A 1.42 1.42 0.0 0 0 353.29 122.13
  L 304.99 149.97"
/>
<path stroke="#15376b" vector-effect="non-scaling-stroke" d="
  M 304.99 149.97
  Q 304.32 150.21 304.32 150.74
  Q 304.48 178.74 304.40 206.75
  A 1.80 1.79 15.2 0 0 305.29 208.30
  L 351.82 235.31"
/>
<path stroke="#0e0e13" vector-effect="non-scaling-stroke" d="
  M 351.82 235.31
  Q 359.32 237.98 358.70 243.93"
/>
<path stroke="#264f7f" vector-effect="non-scaling-stroke" d="
  M 358.70 243.93
  Q 358.59 244.04 358.47 244.16"
/>
<path stroke="#15376b" vector-effect="non-scaling-stroke" d="
  M 358.47 244.16
  L 358.53 300.42
  A 1.76 1.74 15.3 0 0 359.40 301.93
  L 407.55 329.86"
/>
<path stroke="#264f7f" vector-effect="non-scaling-stroke" d="
  M 407.55 329.86
  Q 415.40 326.45 424.14 320.76"
/>
<path stroke="#0e0e13" vector-effect="non-scaling-stroke" d="
  M 424.14 320.76
  Q 426.93 334.09 427.31 344.48
  Q 427.34 345.29 427.66 368.85
  Q 427.83 380.98 434.40 391.65
  Q 440.23 401.15 448.59 407.90
  C 454.48 412.66 460.52 412.51 467.55 410.46"
/>
<path stroke="#2a5488" vector-effect="non-scaling-stroke" d="
  M 424.14 320.76
  L 429.80 317.56"
/>
<path stroke="#346788" vector-effect="non-scaling-stroke" d="
  M 429.80 317.56
  L 457.42 301.61
  A 0.76 0.76 0.0 0 0 457.79 300.96
  L 457.79 244.82
  A 1.31 1.31 0.0 0 0 457.14 243.69
  L 408.70 215.72
  A 1.22 1.20 44.6 0 0 407.49 215.72
  L 378.22 232.69"
/>
<path stroke="#2a5488" vector-effect="non-scaling-stroke" d="
  M 378.22 232.69
  L 358.70 243.93"
/>
<path stroke="#193b74" vector-effect="non-scaling-stroke" d="
  M 351.82 235.31
  Q 352.18 235.27 352.81 235.52"
/>
<path stroke="#2a5488" vector-effect="non-scaling-stroke" d="
  M 352.81 235.52
  Q 353.80 236.63 354.64 236.13
  Q 364.39 230.37 374.35 224.66"
/>
<path stroke="#346788" vector-effect="non-scaling-stroke" d="
  M 374.35 224.66
  L 403.24 208.07
  A 0.87 0.86 -15.0 0 0 403.68 207.32
  L 403.68 151.01
  A 0.93 0.93 0.0 0 0 403.22 150.21
  L 400.58 148.66"
/>
<path stroke="#2a5488" vector-effect="non-scaling-stroke" d="
  M 400.58 148.66
  L 390.71 142.88"
/>
<path stroke="#4ca8f4" vector-effect="non-scaling-stroke" d="
  M 400.58 148.66
  Q 395.54 150.35 390.24 150.38
  Q 378.64 150.44 369.81 150.82
  A 0.81 0.79 14.0 0 0 369.16 151.20
  Q 363.51 160.75 363.99 171.81
  Q 364.30 178.98 364.76 181.66
  Q 368.50 203.39 374.35 224.66"
/>
<path stroke="#317de0" vector-effect="non-scaling-stroke" d="
  M 352.81 235.52
  L 352.47 233.73
  A 2.36 2.35 23.9 0 0 352.18 232.98
  Q 349.64 228.89 346.99 224.27
  Q 329.91 194.52 307.27 155.54
  Q 306.74 154.63 306.69 154.12
  Q 306.61 153.26 305.86 153.19
  A 0.74 0.74 0.0 0 1 305.18 152.51
  L 304.99 149.97"
/>
<path stroke="#317de0" vector-effect="non-scaling-stroke" d="
  M 407.55 329.86
  L 358.47 244.16"
/>
<path stroke="#4ca8f4" vector-effect="non-scaling-stroke" d="
  M 429.80 317.56
  Q 421.08 305.77 402.01 278.28
  Q 386.56 256.01 378.22 232.69"
/>
<path stroke="#173c78" vector-effect="non-scaling-stroke" d="
  M 199.48 148.55
  Q 197.31 149.25 196.42 150.73
  A 1.48 1.47 60.7 0 0 196.21 151.49
  L 196.21 206.83
  A 1.57 1.56 -75.2 0 0 197.00 208.19
  L 245.22 236.03
  A 1.18 1.17 44.6 0 0 246.41 236.03
  L 294.98 207.99
  A 0.80 0.78 -15.4 0 0 295.38 207.31
  L 295.38 151.36
  A 1.45 1.44 15.4 0 0 294.67 150.12
  L 290.55 147.67"
/>
<path stroke="#264f7f" vector-effect="non-scaling-stroke" d="
  M 290.55 147.67
  L 246.47 122.15
  A 1.40 1.38 -44.6 0 0 245.08 122.15
  L 199.48 148.55"
/>
<path stroke="#3382ed" vector-effect="non-scaling-stroke" d="
  M 290.55 147.67
  Q 290.08 148.98 289.16 149.81
  A 1.44 1.42 21.2 0 1 288.31 150.18
  Q 284.79 150.48 282.84 150.51
  Q 242.35 151.06 200.66 150.51
  Q 199.66 150.50 199.10 149.71
  Q 198.86 149.37 199.48 148.55"
/>
<path stroke="#22457f" vector-effect="non-scaling-stroke" d="
  M 240.12 302.06
  Q 241.46 301.57 241.46 300.50
  Q 241.41 272.75 241.48 245.03
  A 1.56 1.54 15.2 0 0 240.70 243.69
  L 193.52 216.43"
/>
<path stroke="#15376b" vector-effect="non-scaling-stroke" d="
  M 193.52 216.43
  Q 192.22 215.20 190.31 216.31
  Q 167.86 229.31 143.14 243.57
  A 1.87 1.86 -15.2 0 0 142.21 245.18
  L 142.21 300.63
  A 1.41 1.38 -75.2 0 0 142.90 301.84
  L 190.81 329.50
  A 1.78 1.76 44.7 0 0 192.58 329.50
  L 240.12 302.06"
/>
<path stroke="#2e73e0" vector-effect="non-scaling-stroke" d="
  M 193.52 216.43
  Q 192.94 218.17 194.20 220.33
  Q 217.01 259.76 239.77 299.23
  Q 240.49 300.48 240.12 302.06"
/>
<path stroke="#173c78" vector-effect="non-scaling-stroke" d="
  M 305.97 395.94
  L 353.26 423.28
  A 1.36 1.34 -44.6 0 0 354.61 423.28
  L 401.08 396.54"
/>
<path stroke="#22457f" vector-effect="non-scaling-stroke" d="
  M 401.08 396.54
  L 403.20 395.34
  A 0.90 0.90 0.0 0 0 403.65 394.56
  L 403.65 338.83
  A 1.80 1.77 -75.3 0 0 402.76 337.28
  L 354.51 309.42
  A 1.28 1.28 0.0 0 0 353.23 309.42
  L 305.03 337.25
  A 1.39 1.38 75.0 0 0 304.34 338.45
  Q 304.38 368.34 304.35 394.25
  Q 304.35 395.59 305.97 395.94"
/>
<path stroke="#3078ed" vector-effect="non-scaling-stroke" d="
  M 401.08 396.54
  Q 399.30 395.15 398.45 395.15
  Q 356.72 395.06 315.00 394.90
  C 311.72 394.89 309.25 394.03 305.97 395.94"
/>
<path stroke="#22457f" vector-effect="non-scaling-stroke" d="
  M 185.90 395.80
  Q 187.30 395.16 187.30 394.25
  Q 187.33 366.37 187.33 338.56
  A 1.31 1.31 0.0 0 0 186.67 337.44
  L 138.59 309.64"
/>
<path stroke="#15376b" vector-effect="non-scaling-stroke" d="
  M 138.59 309.64
  Q 137.67 309.15 136.86 309.62
  Q 114.82 322.40 88.88 337.32
  A 1.49 1.48 -15.0 0 0 88.13 338.61
  L 88.13 394.07
  A 1.77 1.76 -75.0 0 0 89.01 395.60
  L 136.95 423.27
  A 1.33 1.33 0.0 0 0 138.29 423.27
  L 185.90 395.80"
/>
<path stroke="#2e73e0" vector-effect="non-scaling-stroke" d="
  M 138.59 309.64
  Q 137.99 309.85 138.20 310.21
  Q 161.91 351.74 185.90 393.12
  A 1.14 1.10 33.2 0 1 186.05 393.78
  L 185.90 395.80"
/>
<path stroke="#264f7f" vector-effect="non-scaling-stroke" d="
  M 295.50 393.20
  L 295.50 338.48
  A 1.28 1.28 0.0 0 0 294.87 337.38
  L 246.20 309.52"
/>
<path stroke="#15376b" vector-effect="non-scaling-stroke" d="
  M 246.20 309.52
  Q 245.78 309.18 245.25 309.49
  Q 223.75 321.94 196.86 337.44
  A 1.28 1.28 0.0 0 0 196.23 338.54
  L 196.23 393.87
  A 2.05 2.04 -75.0 0 0 197.25 395.64
  L 245.02 423.22
  A 1.61 1.61 0.0 0 0 246.64 423.22
  L 294.84 395.39
  A 1.35 1.34 -4.7 0 0 295.43 394.70
  Q 295.72 393.97 295.50 393.20"
/>
<path stroke="#317de0" vector-effect="non-scaling-stroke" d="
  M 246.20 309.52
  Q 247.16 312.08 248.54 314.46
  Q 270.55 352.47 292.45 390.55
  Q 294.05 393.33 295.50 393.20"
/>
</g>
<path fill="#09090a" d="
  M 422.33 82.19
  Q 411.37 95.21 406.27 107.80
  C 401.46 119.69 397.38 131.29 390.71 142.88
  L 354.71 122.13
  A 1.42 1.42 0.0 0 0 353.29 122.13
  L 304.99 149.97
  Q 304.32 150.21 304.32 150.74
  Q 304.48 178.74 304.40 206.75
  A 1.80 1.79 15.2 0 0 305.29 208.30
  L 351.82 235.31
  Q 359.32 237.98 358.70 243.93
  Q 358.59 244.04 358.47 244.16
  L 358.53 300.42
  A 1.76 1.74 15.3 0 0 359.40 301.93
  L 407.55 329.86
  Q 415.40 326.45 424.14 320.76
  Q 426.93 334.09 427.31 344.48
  Q 427.34 345.29 427.66 368.85
  Q 427.83 380.98 434.40 391.65
  Q 440.23 401.15 448.59 407.90
  C 454.48 412.66 460.52 412.51 467.55 410.46
  L 442.46 441.04
  A 10.23 10.23 0.0 0 1 441.04 442.46
  Q 425.18 455.48 409.29 468.60
  Q 405.08 472.08 400.53 474.50
  Q 382.39 484.16 363.37 494.25
  A 9.80 9.53 21.8 0 1 361.57 494.99
  Q 347.07 499.31 319.09 507.86
  Q 317.45 508.36 315.51 508.55
  Q 290.89 510.96 271.77 512.85
  Q 269.82 513.04 267.93 512.85
  Q 237.22 509.80 224.25 508.50
  Q 222.56 508.33 220.53 507.71
  Q 210.31 504.63 179.18 495.17
  A 23.29 23.04 67.1 0 1 175.06 493.47
  Q 166.23 488.76 139.20 474.30
  C 136.89 473.07 134.95 471.98 133.02 470.41
  Q 116.51 456.96 99.86 443.20
  A 23.83 23.07 0.9 0 1 96.66 440.00
  L 69.31 406.71
  A 21.20 21.05 11.5 0 1 66.98 403.22
  L 45.64 363.29
  A 2.63 2.43 24.3 0 1 45.42 362.77
  L 31.97 318.42
  A 12.03 11.34 35.5 0 1 31.53 316.19
  L 26.99 270.12
  A 2.40 1.99 -90.0 0 1 26.99 269.78
  L 31.45 224.56
  A 20.42 20.33 56.5 0 1 32.24 220.62
  Q 41.91 188.88 43.65 182.82
  Q 45.20 177.47 47.60 172.99
  Q 64.83 140.88 65.66 139.19
  Q 67.44 135.50 71.64 130.42
  Q 89.88 108.32 92.42 105.16
  C 95.51 101.30 97.67 98.54 101.22 95.63
  Q 133.56 69.12 133.65 69.04
  A 19.40 19.05 10.9 0 1 136.71 67.01
  L 175.65 46.21
  A 15.89 15.68 22.2 0 1 178.51 45.03
  L 221.55 31.95
  A 10.50 10.01 32.3 0 1 223.35 31.59
  Q 224.97 31.43 264.13 27.53
  Q 270.29 26.91 274.90 27.42
  Q 282.48 28.24 312.70 31.15
  Q 317.85 31.65 323.02 33.30
  Q 328.45 35.03 360.51 44.72
  Q 362.90 45.44 364.00 46.03
  Q 379.77 54.46 399.11 64.73
  Q 404.19 67.43 408.84 71.13
  Q 415.63 76.53 422.33 82.19
  Z
  M 199.48 148.55
  Q 197.31 149.25 196.42 150.73
  A 1.48 1.47 60.7 0 0 196.21 151.49
  L 196.21 206.83
  A 1.57 1.56 -75.2 0 0 197.00 208.19
  L 245.22 236.03
  A 1.18 1.17 44.6 0 0 246.41 236.03
  L 294.98 207.99
  A 0.80 0.78 -15.4 0 0 295.38 207.31
  L 295.38 151.36
  A 1.45 1.44 15.4 0 0 294.67 150.12
  L 290.55 147.67
  L 246.47 122.15
  A 1.40 1.38 -44.6 0 0 245.08 122.15
  L 199.48 148.55
  Z
  M 240.12 302.06
  Q 241.46 301.57 241.46 300.50
  Q 241.41 272.75 241.48 245.03
  A 1.56 1.54 15.2 0 0 240.70 243.69
  L 193.52 216.43
  Q 192.22 215.20 190.31 216.31
  Q 167.86 229.31 143.14 243.57
  A 1.87 1.86 -15.2 0 0 142.21 245.18
  L 142.21 300.63
  A 1.41 1.38 -75.2 0 0 142.90 301.84
  L 190.81 329.50
  A 1.78 1.76 44.7 0 0 192.58 329.50
  L 240.12 302.06
  Z
  M 305.97 395.94
  L 353.26 423.28
  A 1.36 1.34 -44.6 0 0 354.61 423.28
  L 401.08 396.54
  L 403.20 395.34
  A 0.90 0.90 0.0 0 0 403.65 394.56
  L 403.65 338.83
  A 1.80 1.77 -75.3 0 0 402.76 337.28
  L 354.51 309.42
  A 1.28 1.28 0.0 0 0 353.23 309.42
  L 305.03 337.25
  A 1.39 1.38 75.0 0 0 304.34 338.45
  Q 304.38 368.34 304.35 394.25
  Q 304.35 395.59 305.97 395.94
  Z
  M 185.90 395.80
  Q 187.30 395.16 187.30 394.25
  Q 187.33 366.37 187.33 338.56
  A 1.31 1.31 0.0 0 0 186.67 337.44
  L 138.59 309.64
  Q 137.67 309.15 136.86 309.62
  Q 114.82 322.40 88.88 337.32
  A 1.49 1.48 -15.0 0 0 88.13 338.61
  L 88.13 394.07
  A 1.77 1.76 -75.0 0 0 89.01 395.60
  L 136.95 423.27
  A 1.33 1.33 0.0 0 0 138.29 423.27
  L 185.90 395.80
  Z
  M 295.50 393.20
  L 295.50 338.48
  A 1.28 1.28 0.0 0 0 294.87 337.38
  L 246.20 309.52
  Q 245.78 309.18 245.25 309.49
  Q 223.75 321.94 196.86 337.44
  A 1.28 1.28 0.0 0 0 196.23 338.54
  L 196.23 393.87
  A 2.05 2.04 -75.0 0 0 197.25 395.64
  L 245.02 423.22
  A 1.61 1.61 0.0 0 0 246.64 423.22
  L 294.84 395.39
  A 1.35 1.34 -4.7 0 0 295.43 394.70
  Q 295.72 393.97 295.50 393.20
  Z"
/>
<path fill="#12121b" d="
  M 422.33 82.19
  L 440.47 97.08
  A 18.21 17.89 89.4 0 1 443.02 99.62
  L 470.77 133.40
  A 18.52 18.33 -79.3 0 1 472.78 136.38
  Q 474.35 139.27 492.07 172.33
  Q 494.91 177.63 496.09 182.10
  Q 496.59 184.01 507.84 220.91
  A 16.70 16.42 34.2 0 1 508.49 224.17
  L 512.94 269.34
  A 6.86 6.86 0.0 0 1 512.94 270.62
  L 508.37 316.95
  A 4.48 4.26 -35.4 0 1 508.22 317.72
  L 494.67 362.38
  A 6.09 5.63 -24.3 0 1 494.26 363.35
  Q 493.25 365.26 473.27 402.72
  C 471.73 405.60 469.64 407.98 467.55 410.46
  C 460.52 412.51 454.48 412.66 448.59 407.90
  Q 440.23 401.15 434.40 391.65
  Q 427.83 380.98 427.66 368.85
  Q 427.34 345.29 427.31 344.48
  Q 426.93 334.09 424.14 320.76
  L 429.80 317.56
  L 457.42 301.61
  A 0.76 0.76 0.0 0 0 457.79 300.96
  L 457.79 244.82
  A 1.31 1.31 0.0 0 0 457.14 243.69
  L 408.70 215.72
  A 1.22 1.20 44.6 0 0 407.49 215.72
  L 378.22 232.69
  L 358.70 243.93
  Q 359.32 237.98 351.82 235.31
  Q 352.18 235.27 352.81 235.52
  Q 353.80 236.63 354.64 236.13
  Q 364.39 230.37 374.35 224.66
  L 403.24 208.07
  A 0.87 0.86 -15.0 0 0 403.68 207.32
  L 403.68 151.01
  A 0.93 0.93 0.0 0 0 403.22 150.21
  L 400.58 148.66
  L 390.71 142.88
  C 397.38 131.29 401.46 119.69 406.27 107.80
  Q 411.37 95.21 422.33 82.19
  Z"
/>
<path fill="#4295f4" d="
  M 290.55 147.67
  Q 290.08 148.98 289.16 149.81
  A 1.44 1.42 21.2 0 1 288.31 150.18
  Q 284.79 150.48 282.84 150.51
  Q 242.35 151.06 200.66 150.51
  Q 199.66 150.50 199.10 149.71
  Q 198.86 149.37 199.48 148.55
  L 245.08 122.15
  A 1.40 1.38 -44.6 0 1 246.47 122.15
  L 290.55 147.67
  Z"
/>
<path fill="#4295f4" d="
  M 390.71 142.88
  L 400.58 148.66
  Q 395.54 150.35 390.24 150.38
  Q 378.64 150.44 369.81 150.82
  A 0.81 0.79 14.0 0 0 369.16 151.20
  Q 363.51 160.75 363.99 171.81
  Q 364.30 178.98 364.76 181.66
  Q 368.50 203.39 374.35 224.66
  Q 364.39 230.37 354.64 236.13
  Q 353.80 236.63 352.81 235.52
  L 352.47 233.73
  A 2.36 2.35 23.9 0 0 352.18 232.98
  Q 349.64 228.89 346.99 224.27
  Q 329.91 194.52 307.27 155.54
  Q 306.74 154.63 306.69 154.12
  Q 306.61 153.26 305.86 153.19
  A 0.74 0.74 0.0 0 1 305.18 152.51
  L 304.99 149.97
  L 353.29 122.13
  A 1.42 1.42 0.0 0 1 354.71 122.13
  L 390.71 142.88
  Z"
/>
<path fill="#246ee5" d="
  M 199.48 148.55
  Q 198.86 149.37 199.10 149.71
  Q 199.66 150.50 200.66 150.51
  Q 242.35 151.06 282.84 150.51
  Q 284.79 150.48 288.31 150.18
  A 1.44 1.42 21.2 0 0 289.16 149.81
  Q 290.08 148.98 290.55 147.67
  L 294.67 150.12
  A 1.45 1.44 15.4 0 1 295.38 151.36
  L 295.38 207.31
  A 0.80 0.78 -15.4 0 1 294.98 207.99
  L 246.41 236.03
  A 1.18 1.17 44.6 0 1 245.22 236.03
  L 197.00 208.19
  A 1.57 1.56 -75.2 0 1 196.21 206.83
  L 196.21 151.49
  A 1.48 1.47 60.7 0 1 196.42 150.73
  Q 197.31 149.25 199.48 148.55
  Z"
/>
<path fill="#55bbf4" d="
  M 400.58 148.66
  L 403.22 150.21
  A 0.93 0.93 0.0 0 1 403.68 151.01
  L 403.68 207.32
  A 0.87 0.86 -15.0 0 1 403.24 208.07
  L 374.35 224.66
  Q 368.50 203.39 364.76 181.66
  Q 364.30 178.98 363.99 171.81
  Q 363.51 160.75 369.16 151.20
  A 0.81 0.79 14.0 0 1 369.81 150.82
  Q 378.64 150.44 390.24 150.38
  Q 395.54 150.35 400.58 148.66
  Z"
/>
<path fill="#2064cc" d="
  M 304.99 149.97
  L 305.18 152.51
  A 0.74 0.74 0.0 0 0 305.86 153.19
  Q 306.61 153.26 306.69 154.12
  Q 306.74 154.63 307.27 155.54
  Q 329.91 194.52 346.99 224.27
  Q 349.64 228.89 352.18 232.98
  A 2.36 2.35 23.9 0 1 352.47 233.73
  L 352.81 235.52
  Q 352.18 235.27 351.82 235.31
  L 305.29 208.30
  A 1.80 1.79 15.2 0 1 304.40 206.75
  Q 304.48 178.74 304.32 150.74
  Q 304.32 150.21 304.99 149.97
  Z"
/>
<path fill="#55bbf4" d="
  M 429.80 317.56
  Q 421.08 305.77 402.01 278.28
  Q 386.56 256.01 378.22 232.69
  L 407.49 215.72
  A 1.22 1.20 44.6 0 1 408.70 215.72
  L 457.14 243.69
  A 1.31 1.31 0.0 0 1 457.79 244.82
  L 457.79 300.96
  A 0.76 0.76 0.0 0 1 457.42 301.61
  L 429.80 317.56
  Z"
/>
<path fill="#2064cc" d="
  M 193.52 216.43
  Q 192.94 218.17 194.20 220.33
  Q 217.01 259.76 239.77 299.23
  Q 240.49 300.48 240.12 302.06
  L 192.58 329.50
  A 1.78 1.76 44.7 0 1 190.81 329.50
  L 142.90 301.84
  A 1.41 1.38 -75.2 0 1 142.21 300.63
  L 142.21 245.18
  A 1.87 1.86 -15.2 0 1 143.14 243.57
  Q 167.86 229.31 190.31 216.31
  Q 192.22 215.20 193.52 216.43
  Z"
/>
<path fill="#3b81f4" d="
  M 193.52 216.43
  L 240.70 243.69
  A 1.56 1.54 15.2 0 1 241.48 245.03
  Q 241.41 272.75 241.46 300.50
  Q 241.46 301.57 240.12 302.06
  Q 240.49 300.48 239.77 299.23
  Q 217.01 259.76 194.20 220.33
  Q 192.94 218.17 193.52 216.43
  Z"
/>
<path fill="#4295f4" d="
  M 378.22 232.69
  Q 386.56 256.01 402.01 278.28
  Q 421.08 305.77 429.80 317.56
  L 424.14 320.76
  Q 415.40 326.45 407.55 329.86
  L 358.47 244.16
  Q 358.59 244.04 358.70 243.93
  L 378.22 232.69
  Z"
/>
<path fill="#2064cc" d="
  M 358.47 244.16
  L 407.55 329.86
  L 359.40 301.93
  A 1.76 1.74 15.3 0 1 358.53 300.42
  L 358.47 244.16
  Z"
/>
<path fill="#3b81f4" d="
  M 401.08 396.54
  Q 399.30 395.15 398.45 395.15
  Q 356.72 395.06 315.00 394.90
  C 311.72 394.89 309.25 394.03 305.97 395.94
  Q 304.35 395.59 304.35 394.25
  Q 304.38 368.34 304.34 338.45
  A 1.39 1.38 75.0 0 1 305.03 337.25
  L 353.23 309.42
  A 1.28 1.28 0.0 0 1 354.51 309.42
  L 402.76 337.28
  A 1.80 1.77 -75.3 0 1 403.65 338.83
  L 403.65 394.56
  A 0.90 0.90 0.0 0 1 403.20 395.34
  L 401.08 396.54
  Z"
/>
<path fill="#2064cc" d="
  M 138.59 309.64
  Q 137.99 309.85 138.20 310.21
  Q 161.91 351.74 185.90 393.12
  A 1.14 1.10 33.2 0 1 186.05 393.78
  L 185.90 395.80
  L 138.29 423.27
  A 1.33 1.33 0.0 0 1 136.95 423.27
  L 89.01 395.60
  A 1.77 1.76 -75.0 0 1 88.13 394.07
  L 88.13 338.61
  A 1.49 1.48 -15.0 0 1 88.88 337.32
  Q 114.82 322.40 136.86 309.62
  Q 137.67 309.15 138.59 309.64
  Z"
/>
<path fill="#2064cc" d="
  M 246.20 309.52
  Q 247.16 312.08 248.54 314.46
  Q 270.55 352.47 292.45 390.55
  Q 294.05 393.33 295.50 393.20
  Q 295.72 393.97 295.43 394.70
  A 1.35 1.34 -4.7 0 1 294.84 395.39
  L 246.64 423.22
  A 1.61 1.61 0.0 0 1 245.02 423.22
  L 197.25 395.64
  A 2.05 2.04 -75.0 0 1 196.23 393.87
  L 196.23 338.54
  A 1.28 1.28 0.0 0 1 196.86 337.44
  Q 223.75 321.94 245.25 309.49
  Q 245.78 309.18 246.20 309.52
  Z"
/>
<path fill="#4295f4" d="
  M 295.50 393.20
  Q 294.05 393.33 292.45 390.55
  Q 270.55 352.47 248.54 314.46
  Q 247.16 312.08 246.20 309.52
  L 294.87 337.38
  A 1.28 1.28 0.0 0 1 295.50 338.48
  L 295.50 393.20
  Z"
/>
<path fill="#3b81f4" d="
  M 138.59 309.64
  L 186.67 337.44
  A 1.31 1.31 0.0 0 1 187.33 338.56
  Q 187.33 366.37 187.30 394.25
  Q 187.30 395.16 185.90 395.80
  L 186.05 393.78
  A 1.14 1.10 33.2 0 0 185.90 393.12
  Q 161.91 351.74 138.20 310.21
  Q 137.99 309.85 138.59 309.64
  Z"
/>
<path fill="#246ee5" d="
  M 401.08 396.54
  L 354.61 423.28
  A 1.36 1.34 -44.6 0 1 353.26 423.28
  L 305.97 395.94
  C 309.25 394.03 311.72 394.89 315.00 394.90
  Q 356.72 395.06 398.45 395.15
  Q 399.30 395.15 401.08 396.54
  Z"
/>
</svg>
